<?xml version="1.0" encoding="UTF-8"?>
<!DOCTYPE svg PUBLIC "-//W3C//DTD SVG 1.1//EN" "http://www.w3.org/Graphics/SVG/1.1/DTD/svg11.dtd">
<svg xmlns="http://www.w3.org/2000/svg" xmlns:xlink="http://www.w3.org/1999/xlink" version="1.1" width="512px" height="512px" style="shape-rendering:geometricPrecision; text-rendering:geometricPrecision; image-rendering:optimizeQuality; fill-rule:evenodd; clip-rule:evenodd">
<g><path style="opacity:1" fill="#010101" d="M 489.5,202.5 C 489.41,205.152 490.076,207.485 491.5,209.5C 491.5,210.167 491.5,210.833 491.5,211.5C 491.41,214.152 492.076,216.485 493.5,218.5C 496.684,246.608 496.018,274.608 491.5,302.5C 490.076,304.515 489.41,306.848 489.5,309.5C 465.507,399.329 409.173,458.496 320.5,487C 313.327,488.333 306.327,489.833 299.5,491.5C 292.936,491.864 286.603,492.864 280.5,494.5C 271.67,494.846 262.837,495.179 254,495.5C 241.45,495.05 228.95,494.05 216.5,492.5C 214.162,490.96 211.495,490.294 208.5,490.5C 137.69,474.846 83.8568,435.846 47,373.5C 10.7576,304.682 6.7576,234.015 35,161.5C 69.2171,87.1514 126.05,40.3181 205.5,21C 281.341,6.69189 349.341,23.3586 409.5,71C 450.849,105.86 477.515,149.693 489.5,202.5 Z"/></g>
<g><path style="opacity:1" fill="#fbfcfc" d="M 197.5,133.5 C 197.44,132.957 197.107,132.624 196.5,132.5C 195.177,143.326 195.177,153.993 196.5,164.5C 236.042,168.985 264.209,153.318 281,117.5C 284.233,104.744 285.733,91.7437 285.5,78.5C 344.738,89.3715 388.571,121.372 417,174.5C 429.614,199.961 435.781,226.961 435.5,255.5C 457.385,258.219 467.218,270.552 465,292.5C 458.193,311.152 445.027,318.818 425.5,315.5C 401.488,378.007 356.822,416.84 291.5,432C 219.612,443.934 160.446,422.1 114,366.5C 101.956,350.748 92.7894,333.415 86.5,314.5C 66.242,318.793 53.0754,311.127 47,291.5C 44.4947,273.347 51.9947,261.514 69.5,256C 71.8098,255.503 74.1432,255.337 76.5,255.5C 77.3763,193.577 102.71,144.411 152.5,108C 183.511,86.8307 217.844,75.9973 255.5,75.5C 259.562,98.5094 252.229,116.676 233.5,130C 221.929,135.827 209.929,136.994 197.5,133.5 Z"/></g>
<g><path style="opacity:1" fill="#030303" d="M 174.5,210.5 C 195.774,209.291 207.774,219.125 210.5,240C 210.2,253.597 203.866,263.263 191.5,269C 172.327,273.664 159.161,266.831 152,248.5C 149.323,229.701 156.823,217.034 174.5,210.5 Z"/></g>
<g><path style="opacity:1" fill="#040404" d="M 324.5,210.5 C 341.87,209.093 353.703,216.427 360,232.5C 362.936,251.236 355.436,263.736 337.5,270C 317.961,272.136 305.794,263.636 301,244.5C 300.351,227.314 308.184,215.981 324.5,210.5 Z"/></g>
<g><path style="opacity:1" fill="#030303" d="M 181.5,316.5 C 182.552,316.351 183.552,316.517 184.5,317C 212.576,342.52 245.242,350.853 282.5,342C 300.184,337.246 315.684,328.746 329,316.5C 336.604,322.775 342.771,330.275 347.5,339C 310.829,371.418 268.495,382.085 220.5,371C 199.272,364.89 180.605,354.39 164.5,339.5C 169.034,330.97 174.701,323.304 181.5,316.5 Z"/></g>
</svg>